# xmcd CD database file
#
# Track frame offsets:
#	150
#	16689
#	33727
#	49657
#	65284
#	81472
#	97498
#	116557
#	134568
#	152012
#	164585
#	183752
#	198501
#	216472
#
# Disc length: 3093 seconds
#
# Revision: 0
# Processed by: cddbd v1.5.2PL0 Copyright (c) Steve Scherf et al.
# Submitted via: CDex 1.51
#
DISCID=cd0c130e
DTITLE=Katy Benko - Float
DYEAR=2003
DGENRE=Country
TTITLE0=Walkin'
TTITLE1=If I'd Never Loved You
TTITLE2=Long Way To Fall
TTITLE3=Here With You
TTITLE4=Don't Ever Let Me Go
TTITLE5=Float
TTITLE6=Love Me Like I'm Leavin'
TTITLE7=Hard Life
TTITLE8=Till Nothing Comes Between Us
TTITLE9=This Can't Be Anything But Love
TTITLE10=Love Don't Let You Down Easy
TTITLE11=I Didn't Know
TTITLE12=I Might Get Over You
TTITLE13=Th e Show
EXTD=YEAR: 2003
EXTT0=
EXTT1=
EXTT2=
EXTT3=
EXTT4=
EXTT5=
EXTT6=
EXTT7=
EXTT8=
EXTT9=
EXTT10=
EXTT11=
EXTT12=
EXTT13=
PLAYORDER=
